PathFileType	4	(X/Y/Z)	C:\Users\italobelli\Desktop\GitHub\PTbot_officialCBL\Personal_Results\SHRUG22_noisy1.trc
DataRate	CameraRate	NumFrames	NumMarkers	Units	OrigDataRate	OrigDataStartFrame	OrigNumFrames
110.888889	110.888889	38	9	m	110.888889	63	500
Frame#	Time		gu		centelbow		EpL		centpxt8		centijc7		ij		ts		aa		ai
			X1	Y1	Z1	X2	Y2	Z2	X3	Y3	Z3	X4	Y4	Z4	X5	Y5	Z5	X6	Y6	Z6	X7	Y7	Z7	X8	Y8	Z8	X9	Y9	Z9

63	0.55912	-0.084566	-0.01613	0.1636	-0.1195	-0.26388	0.17693	-0.10417	-0.25983	0.20499	-0.046816	-0.15316	-0.008669	-0.046816	0.031938	-0.008669	0	0	0	-0.13654	0.028432	0.049492	-0.11033	0.019645	0.16552	-0.15957	-0.082709	0.051645
64	0.56814	-0.084586	-0.016117	0.16363	-0.11958	-0.26385	0.17701	-0.10425	-0.25981	0.20507	-0.046816	-0.15316	-0.008669	-0.046816	0.031938	-0.008669	0	0	0	-0.13654	0.028449	0.04948	-0.11035	0.019665	0.16551	-0.15959	-0.082691	0.051633
65	0.57715	-0.084607	-0.016104	0.16366	-0.11966	-0.26382	0.17709	-0.10433	-0.25978	0.20515	-0.046816	-0.15316	-0.008669	-0.046816	0.031938	-0.008669	0	0	0	-0.13655	0.028468	0.049468	-0.11037	0.019687	0.16551	-0.1596	-0.082673	0.051622
66	0.58617	-0.084628	-0.016089	0.1637	-0.11974	-0.26379	0.17718	-0.1044	-0.25974	0.20524	-0.046816	-0.15316	-0.008669	-0.046816	0.031938	-0.008669	0	0	0	-0.13656	0.028488	0.049455	-0.11039	0.019711	0.1655	-0.15961	-0.082653	0.05161
67	0.59519	-0.084649	-0.016072	0.16375	-0.11981	-0.26375	0.17728	-0.10448	-0.2597	0.20534	-0.046816	-0.15316	-0.008669	-0.046816	0.031938	-0.008669	0	0	0	-0.13657	0.028509	0.049442	-0.11042	0.019736	0.16549	-0.15962	-0.082633	0.051598
68	0.60421	-0.08467	-0.016055	0.16379	-0.11989	-0.26371	0.17738	-0.10456	-0.25966	0.20544	-0.046816	-0.15316	-0.008669	-0.046816	0.031938	-0.008669	0	0	0	-0.13658	0.028531	0.049429	-0.11044	0.019764	0.16548	-0.15964	-0.082611	0.051586
69	0.61323	-0.084691	-0.016036	0.16384	-0.11997	-0.26367	0.17748	-0.10463	-0.25961	0.20555	-0.046816	-0.15316	-0.008669	-0.046816	0.031938	-0.008669	0	0	0	-0.13659	0.028554	0.049416	-0.11047	0.019793	0.16548	-0.15965	-0.082588	0.051574
70	0.62224	-0.084713	-0.016016	0.16389	-0.12004	-0.26362	0.1776	-0.1047	-0.25956	0.20566	-0.046816	-0.15316	-0.008669	-0.046816	0.031938	-0.008669	0	0	0	-0.1366	0.028579	0.049402	-0.1105	0.019825	0.16547	-0.15967	-0.082564	0.051562
71	0.63126	-0.084735	-0.015995	0.16395	-0.12012	-0.26357	0.17771	-0.10477	-0.25951	0.20578	-0.046816	-0.15316	-0.008669	-0.046816	0.031938	-0.008669	0	0	0	-0.13661	0.028604	0.049388	-0.11053	0.019858	0.16546	-0.15968	-0.082539	0.05155
72	0.64028	-0.084758	-0.015972	0.164	-0.12019	-0.26351	0.17783	-0.10484	-0.25945	0.2059	-0.046816	-0.15316	-0.008669	-0.046816	0.031938	-0.008669	0	0	0	-0.13662	0.028631	0.049373	-0.11056	0.019893	0.16545	-0.15969	-0.082513	0.051538
73	0.6493	-0.08478	-0.015948	0.16406	-0.12026	-0.26345	0.17796	-0.10491	-0.25939	0.20603	-0.046816	-0.15316	-0.008669	-0.046816	0.031938	-0.008669	0	0	0	-0.13664	0.028658	0.049358	-0.11059	0.019931	0.16544	-0.15971	-0.082486	0.051526
74	0.65832	-0.084803	-0.015923	0.16412	-0.12034	-0.26339	0.17809	-0.10498	-0.25933	0.20616	-0.046816	-0.15316	-0.008669	-0.046816	0.031938	-0.008669	0	0	0	-0.13665	0.028687	0.049343	-0.11062	0.01997	0.16543	-0.15973	-0.082458	0.051514
75	0.66733	-0.084827	-0.015897	0.16419	-0.12041	-0.26333	0.17823	-0.10505	-0.25926	0.2063	-0.046816	-0.15316	-0.008669	-0.046816	0.031938	-0.008669	0	0	0	-0.13667	0.028717	0.049328	-0.11065	0.020011	0.16542	-0.15974	-0.082428	0.051502
76	0.67635	-0.084851	-0.015869	0.16425	-0.12048	-0.26326	0.17837	-0.10512	-0.25919	0.20644	-0.046816	-0.15316	-0.008669	-0.046816	0.031938	-0.008669	0	0	0	-0.13668	0.028748	0.049312	-0.11069	0.020053	0.16542	-0.15976	-0.082398	0.05149
77	0.68537	-0.084875	-0.01584	0.16432	-0.12055	-0.26319	0.17852	-0.10519	-0.25911	0.20659	-0.046816	-0.15316	-0.008669	-0.046816	0.031938	-0.008669	0	0	0	-0.1367	0.02878	0.049295	-0.11073	0.020098	0.16541	-0.15977	-0.082366	0.051478
78	0.69439	-0.0849	-0.01581	0.16438	-0.12062	-0.26311	0.17867	-0.10526	-0.25904	0.20674	-0.046816	-0.15316	-0.008669	-0.046816	0.031938	-0.008669	0	0	0	-0.13671	0.028813	0.049278	-0.11076	0.020145	0.1654	-0.15979	-0.082334	0.051466
79	0.70341	-0.084925	-0.015778	0.16445	-0.12069	-0.26303	0.17882	-0.10533	-0.25895	0.2069	-0.046816	-0.15316	-0.008669	-0.046816	0.031938	-0.008669	0	0	0	-0.13673	0.028847	0.049261	-0.1108	0.020193	0.16539	-0.1598	-0.0823	0.051455
80	0.71242	-0.08495	-0.015746	0.16452	-0.12076	-0.26295	0.17898	-0.10539	-0.25887	0.20706	-0.046816	-0.15316	-0.008669	-0.046816	0.031938	-0.008669	0	0	0	-0.13674	0.028882	0.049243	-0.11084	0.020244	0.16538	-0.15982	-0.082265	0.051443
81	0.72144	-0.084977	-0.015712	0.16459	-0.12084	-0.26287	0.17914	-0.10546	-0.25878	0.20722	-0.046816	-0.15316	-0.008669	-0.046816	0.031938	-0.008669	0	0	0	-0.13676	0.028918	0.049225	-0.11089	0.020296	0.16537	-0.15984	-0.08223	0.051432
82	0.73046	-0.085003	-0.015676	0.16466	-0.12091	-0.26278	0.17931	-0.10553	-0.25869	0.20739	-0.046816	-0.15316	-0.008669	-0.046816	0.031938	-0.008669	0	0	0	-0.13678	0.028955	0.049206	-0.11093	0.02035	0.16536	-0.15985	-0.082193	0.05142
83	0.73948	-0.085031	-0.01564	0.16473	-0.12098	-0.26269	0.17948	-0.1056	-0.25859	0.20757	-0.046816	-0.15316	-0.008669	-0.046816	0.031938	-0.008669	0	0	0	-0.13679	0.028993	0.049187	-0.11097	0.020406	0.16535	-0.15987	-0.082155	0.051409
84	0.7485	-0.085059	-0.015602	0.16481	-0.12105	-0.26259	0.17966	-0.10567	-0.25849	0.20775	-0.046816	-0.15316	-0.008669	-0.046816	0.031938	-0.008669	0	0	0	-0.13681	0.029032	0.049168	-0.11102	0.020464	0.16534	-0.15988	-0.082116	0.051398
85	0.75752	-0.085087	-0.015563	0.16488	-0.12112	-0.26249	0.17984	-0.10574	-0.25839	0.20793	-0.046816	-0.15316	-0.008669	-0.046816	0.031938	-0.008669	0	0	0	-0.13683	0.029073	0.049148	-0.11107	0.020524	0.16532	-0.1599	-0.082076	0.051387
86	0.76653	-0.085116	-0.015522	0.16495	-0.12119	-0.26239	0.18002	-0.10581	-0.25828	0.20811	-0.046816	-0.15316	-0.008669	-0.046816	0.031938	-0.008669	0	0	0	-0.13684	0.029114	0.049127	-0.11112	0.020586	0.16531	-0.15992	-0.082035	0.051376
87	0.77555	-0.085146	-0.01548	0.16502	-0.12126	-0.26229	0.18021	-0.10588	-0.25817	0.2083	-0.046816	-0.15316	-0.008669	-0.046816	0.031938	-0.008669	0	0	0	-0.13686	0.029156	0.049106	-0.11117	0.020649	0.1653	-0.15993	-0.081992	0.051366
88	0.78457	-0.085176	-0.015437	0.16509	-0.12133	-0.26218	0.1804	-0.10595	-0.25806	0.20849	-0.046816	-0.15316	-0.008669	-0.046816	0.031938	-0.008669	0	0	0	-0.13688	0.029199	0.049084	-0.11122	0.020715	0.16529	-0.15995	-0.081949	0.051355
89	0.79359	-0.085207	-0.015393	0.16516	-0.1214	-0.26207	0.1806	-0.10602	-0.25794	0.20869	-0.046816	-0.15316	-0.008669	-0.046816	0.031938	-0.008669	0	0	0	-0.13689	0.029243	0.049062	-0.11127	0.020782	0.16528	-0.15996	-0.081905	0.051345
90	0.80261	-0.085239	-0.015348	0.16523	-0.12147	-0.26195	0.18079	-0.10609	-0.25782	0.20889	-0.046816	-0.15316	-0.008669	-0.046816	0.031938	-0.008669	0	0	0	-0.13691	0.029288	0.049039	-0.11133	0.020851	0.16527	-0.15998	-0.08186	0.051335
91	0.81162	-0.085272	-0.015301	0.16529	-0.12155	-0.26184	0.181	-0.10617	-0.2577	0.2091	-0.046816	-0.15316	-0.008669	-0.046816	0.031938	-0.008669	0	0	0	-0.13692	0.029334	0.049016	-0.11138	0.020922	0.16525	-0.15999	-0.081813	0.051325
92	0.82064	-0.085305	-0.015253	0.16536	-0.12162	-0.26172	0.1812	-0.10624	-0.25757	0.2093	-0.046816	-0.15316	-0.008669	-0.046816	0.031938	-0.008669	0	0	0	-0.13694	0.029381	0.048992	-0.11144	0.020995	0.16524	-0.16001	-0.081766	0.051316
93	0.82966	-0.085339	-0.015203	0.16542	-0.12169	-0.26159	0.18141	-0.10632	-0.25744	0.20951	-0.046816	-0.15316	-0.008669	-0.046816	0.031938	-0.008669	0	0	0	-0.13695	0.029429	0.048967	-0.1115	0.02107	0.16523	-0.16002	-0.081717	0.051307
94	0.83868	-0.085374	-0.015153	0.16548	-0.12177	-0.26147	0.18162	-0.1064	-0.25731	0.20973	-0.046816	-0.15316	-0.008669	-0.046816	0.031938	-0.008669	0	0	0	-0.13697	0.029478	0.048942	-0.11156	0.021146	0.16521	-0.16003	-0.081668	0.051298
95	0.8477	-0.08541	-0.015101	0.16555	-0.12184	-0.26134	0.18183	-0.10648	-0.25718	0.20995	-0.046816	-0.15316	-0.008669	-0.046816	0.031938	-0.008669	0	0	0	-0.13698	0.029527	0.048916	-0.11162	0.021225	0.1652	-0.16005	-0.081617	0.051289
96	0.85671	-0.085447	-0.015048	0.1656	-0.12192	-0.2612	0.18205	-0.10656	-0.25704	0.21017	-0.046816	-0.15316	-0.008669	-0.046816	0.031938	-0.008669	0	0	0	-0.137	0.029578	0.04889	-0.11168	0.021305	0.16518	-0.16006	-0.081566	0.051281
97	0.86573	-0.085484	-0.014993	0.16566	-0.12199	-0.26107	0.18227	-0.10664	-0.25689	0.21039	-0.046816	-0.15316	-0.008669	-0.046816	0.031938	-0.008669	0	0	0	-0.13701	0.02963	0.048862	-0.11175	0.021388	0.16517	-0.16007	-0.081513	0.051273
98	0.87475	-0.085523	-0.014937	0.16571	-0.12207	-0.26093	0.1825	-0.10673	-0.25675	0.21062	-0.046816	-0.15316	-0.008669	-0.046816	0.031938	-0.008669	0	0	0	-0.13702	0.029682	0.048835	-0.11181	0.021472	0.16515	-0.16008	-0.081459	0.051265
99	0.88377	-0.085562	-0.01488	0.16576	-0.12214	-0.26079	0.18272	-0.10682	-0.2566	0.21085	-0.046816	-0.15316	-0.008669	-0.046816	0.031938	-0.008669	0	0	0	-0.13703	0.029736	0.048806	-0.11188	0.021558	0.16514	-0.1601	-0.081405	0.051257
100	0.89279	-0.085602	-0.014822	0.16581	-0.12222	-0.26064	0.18295	-0.1069	-0.25645	0.21108	-0.046816	-0.15316	-0.008669	-0.046816	0.031938	-0.008669	0	0	0	-0.13705	0.02979	0.048777	-0.11195	0.021645	0.16512	-0.16011	-0.081349	0.05125
